<?xml version="1.0" encoding="utf-8"?>
<!-- Generator: Adobe Illustrator 25.0.0, SVG Export Plug-In . SVG Version: 6.00 Build 0)  -->
<svg version="1.1" id="Camada_1" xmlns="http://www.w3.org/2000/svg" xmlns:xlink="http://www.w3.org/1999/xlink" x="0px" y="0px"
	 viewBox="0 0 2000 2000" style="enable-background:new 0 0 2000 2000;" xml:space="preserve">
<style type="text/css">
	.st0{fill:#006633;}
	.st1{fill:#3AAA35;}
	.st2{enable-background:new    ;}
	.st3{fill:#FFFFFF;}
</style>
<g>
	<path class="st0" d="M972.8,1060.3c-57.8,36.1-45,128.8-42,151c3.6,26.3,7.8,56.4,33.6,78.7c22.3,19.3,58.3,30.5,87,18.9
		c8.2-3.3,9.2-5.8,64-77.6c10.6-13.8,14.6-19.1,16.8-28.3c4.5-18.8-3.1-34.4-22-70.3c-24.8-47.1-37.4-70.8-45.1-75.5
		C1038,1040.6,999.2,1043.8,972.8,1060.3z"/>
	<path class="st0" d="M1429.6,1067.5c-57.8,36.1-45,128.8-41.9,151c3.6,26.3,7.8,56.4,33.6,78.7c22.3,19.3,58.3,30.5,87.1,18.9
		c8.2-3.3,9.2-5.8,64-77.6c10.6-13.8,14.6-19.1,16.8-28.3c4.5-18.8-3.1-34.4-22-70.3c-24.8-47.1-37.4-70.8-45.1-75.5
		C1494.8,1047.7,1456,1051,1429.6,1067.5z"/>
	<polyline class="st1" points="662.6,1498.7 955.8,1498.7 955.8,1402.2 647.7,1402.2 647.7,1498.7 726.5,1498.7 	"/>
	<path class="st1" d="M1794.6,1396.3c-366.1,0-732.2,0-1098.3,0"/>
	<path class="st1" d="M292.5,1316.8l372.6-510.2c0.8-7.6,1.5-18.5,1.9-32.8c0.4-14.3,0.8-29.5,1.3-45.5c0.4-16,0.8-32,1.3-48
		c0.4-16,0.6-29.5,0.6-40.4H67.7c-3.4,10.1-6.5,23-9.5,38.5c-3,15.6-5.5,32-7.6,49.3c-2.1,17.3-3.8,34.1-5,50.5
		c-1.3,16.4-1.9,30.9-1.9,43.6h353.6l-370,510.2c-1.7,10.1-3,22.7-3.8,37.9c-0.9,15.2-1.5,30.8-1.9,46.7c-0.4,16-0.6,31.4-0.6,46.1
		c0,14.7,0,26.7,0,36h641.6c4.2-11.8,7.8-26.1,10.7-42.9c2.9-16.8,5.5-33.9,7.6-51.2c2.1-17.2,3.8-33.7,5-49.3
		c1.3-15.6,1.9-28.4,1.9-38.5L292.5,1316.8L292.5,1316.8z"/>
	<path class="st1" d="M528.8,1069.3c0-74.9,9.7-140.2,29-195.8c19.4-55.6,46.7-101.7,82.1-138.3s78.1-63.8,128.2-81.5
		c50.1-17.7,105.9-26.5,167.4-26.5c61.5,0,117.2,8.8,167.3,26.5c50.1,17.7,92.8,44.8,128.2,81.5c35.4,36.6,62.5,82.7,81.5,138.3
		c18.9,55.6,28.4,120.8,28.4,195.8c0,75.8-9.5,141.3-28.4,196.4c-18.9,55.2-46.1,101-81.5,137.7c-35.4,36.6-78.1,63.8-128.2,81.5
		c-50.1,17.7-107.4,13.9-168.9,13.9c-61.5,0-115.7,3.8-165.8-13.9c-50.1-17.7-92.8-44.8-128.2-81.5c-35.4-36.6-62.7-82.5-82.1-137.7
		C538.5,1210.5,528.8,1145,528.8,1069.3z M744.8,1069.3c0,88.4,16,155.3,48,200.8c32,45.5,79.6,68.2,142.7,68.2
		s110.5-22.5,142.1-67.6c31.6-45,47.4-112.2,47.4-201.4c0-88.4-15.8-155.3-47.4-200.8c-31.6-45.5-78.9-68.2-142.1-68.2
		S824.8,823,792.8,868.5C760.8,913.9,744.8,980.8,744.8,1069.3z"/>
	<path class="st1" d="M1166.9,1077.7c0-74.9,9.7-140.2,29.1-195.8c19.4-55.6,46.7-101.7,82.1-138.3s78.1-63.8,128.2-81.5
		c50.1-17.7,105.9-26.5,167.3-26.5c61.4,0,117.2,8.8,167.3,26.5c50.1,17.7,92.8,44.8,128.2,81.5c7.5,7.7,35.6,37.6,60.1,86.5
		c4.4,8.8,12.9,26.6,21.4,51.8c25.4,75.5,28.4,152.7,28.4,195.8c0,75.8-9.5,141.3-28.4,196.4c-18.9,55.2-46.1,101-81.5,137.7
		c-35.4,36.6-78.1,63.8-128.2,81.5c-50.1,17.7-105.9,26.5-167.3,26.5c-61.5,0-117.3-8.8-167.3-26.5c-50.1-17.7-92.8-44.8-128.2-81.5
		c-35.4-36.6-62.7-82.5-82.1-137.7C1176.6,1219,1166.9,1153.5,1166.9,1077.7z M1382.9,1077.7c0,88.4,16,155.3,48,200.8
		c32,45.5,79.6,68.2,142.7,68.2s110.5-22.5,142.1-67.6c31.6-45,47.4-112.2,47.4-201.4c0-88.4-15.8-155.3-47.4-200.8
		c-31.6-45.5-78.9-68.2-142.1-68.2s-110.7,22.7-142.7,68.2C1398.9,922.4,1382.9,989.3,1382.9,1077.7z"/>
	<path class="st1" d="M1381.7,1482.9c9.5-6.3,19-12.7,28.6-19c-26.5,39.8-72.3,93.8-143.6,126.7c-31.8,14.7-64.9,26.3-97.2,16.9
		c-43.8-12.7-63.9-48-67.6-54.9l0,0c-19.3-23-33.6-51-42.2-84.5c5.6,11.5,8.5,17.3,8.6,17.2c0,0,0-0.1-0.1-0.3
		c14-23,34.4-58.8,54.6-105c30.2-69,31.2-98.4,55.2-110.4c8.4-4.2,160.5,59.1,160.5,59.1L1381.7,1482.9z"/>
	<path class="st0" d="M1123,1489.2c2,2.3,39.2-23.3,38-25.3c-0.9-1.6-31.9,6.8-42.2,29.6c-5.8,12.9-3,26.1-2.3,29.7
		c3.3,15.6,12.8,24.9,19.3,31.3c9,8.9,19.3,19,33.7,19.2c10.5,0.2,18.3-5.5,33.8-16.9c15-11,24.4-17.9,24.5-27.4
		c0.1-7.8-6.2-12.5-16.8-22.4c-36.1-33.6-35.8-46.8-49.9-47.4C1140,1458.7,1121.3,1487.3,1123,1489.2z"/>
	<path class="st1" d="M1063.8,1489.2"/>
	<path class="st0" d="M1330,1231.6"/>
	<path class="st1" d="M875.2,724.5c1.6-57-73.5-61.7-94.4-153.7c-6.8-30-7.5-67.9-33.6-125.6c-18.8-41.7-28.8-44.8-33.6-44.6
		c-16.1,0.5-24.9,39.4-36.7,85.9c-42.7,168.4-59.6,183.8-61.9,264.4c-2,71-3.1,106.4,23.1,119C698,898.5,872.9,810.8,875.2,724.5z"
		/>
	<path class="st1" d="M1684.2,740.2c-1.6-61.8,73.5-66.9,94.4-166.6c6.8-32.5,7.6-73.7,33.6-136.1c18.8-45.2,28.8-48.5,33.6-48.4
		c16.1,0.6,24.9,42.7,36.7,93.1c42.7,182.5,59.6,199.3,61.9,286.6c2,76.9,3.1,115.4-23.1,129
		C1861.4,928.9,1686.6,833.8,1684.2,740.2z"/>
	<g class="st2">
		<path class="st3" d="M18.5,1402.5h52c18.3,0,33,5.2,44.1,15.7c11.1,10.5,16.7,24.2,16.7,41.4c0,18-5.6,32.2-16.9,42.4
			c-11.2,10.2-26.8,15.3-46.7,15.3h-7.2v70.5H18.5V1402.5z M60.5,1438v43.7c9.4-0.2,16.4-2,20.9-5.4c4.5-3.4,6.7-8.8,6.7-16.2
			c0-8-2.2-13.6-6.5-16.9C77.3,1439.9,70.3,1438.2,60.5,1438z"/>
		<path class="st3" d="M279.7,1587.8H236l-7.1-31h-44.4l-7.4,31h-42.9l49.1-185.3h47.2L279.7,1587.8z M220.8,1523.5
			c-6.3-27.6-11-53.8-14.2-78.7h-0.6c-3.3,25.6-8,51.9-14,78.7H220.8z"/>
		<path class="st3" d="M300.9,1402.5h49c19.8,0,35.4,5.1,46.9,15.3c11.5,10.2,17.2,24,17.2,41.5c0,9-2.2,17.7-6.5,26
			c-4.4,8.4-10.7,14.7-19,18.9l33.6,83.6h-44.4l-34-84.4H343v84.4h-42.1V1402.5z M343,1438.3v44c18.6-0.4,27.9-6.9,27.9-19.6
			c0-8.6-2.2-14.8-6.5-18.5C360.1,1440.6,353,1438.6,343,1438.3z"/>
		<path class="st3" d="M575.5,1587.8h-43.7l-7.1-31h-44.4l-7.4,31H430l49.1-185.3h47.2L575.5,1587.8z M516.6,1523.5
			c-6.3-27.6-11-53.8-14.2-78.7h-0.6c-3.3,25.6-8,51.9-14,78.7H516.6z"/>
		<path class="st3" d="M596.7,1402.5H636c27.2,0,47.9,7.8,62,23.2c14.2,15.5,21.2,38.1,21.2,67.9c0,22.6-3.5,40.8-10.5,54.7
			c-7,13.9-16.7,23.9-29.3,30.1c-12.5,6.2-26.4,9.3-41.6,9.3h-41.2V1402.5z M638.8,1441.9v106.3c12.8-1.1,21.8-5.6,27.1-13.5
			c5.3-7.9,7.9-20.9,7.9-39.1c0-10.7-0.9-19.8-2.8-27.3c-1.9-7.4-4.6-13.2-8.3-17.2c-3.7-4-7.2-6.5-10.7-7.4
			C648.5,1442.8,644.1,1442.2,638.8,1441.9z"/>
		<path class="st3" d="M749.1,1402.5h42.1v185.3h-42.1V1402.5z"/>
		<path class="st3" d="M832.2,1584.3v-43.2c13.3,7.8,24.5,11.7,33.6,11.7c5.3,0,9.4-1.5,12.5-4.4c3.1-2.9,4.6-6.8,4.6-11.6
			c0-3.7-1.2-7.2-3.7-10.4c-2.5-3.2-6.7-7.2-12.7-11.8c-14.5-11.1-25.1-21.4-31.6-31c-6.5-9.6-9.8-20.2-9.8-32
			c0-16,5-29.1,15.1-39.1c10.1-10.1,23.1-15.1,39.1-15.1c11.8,0,23.6,2.5,35.3,7.6v41.5c-12.5-6.8-22.6-10.3-30.4-10.3
			c-5.2,0-9.3,1.3-12.3,3.8c-3,2.5-4.5,6-4.5,10.5c0,7.8,7,16.5,21,26.2c8.3,5.7,16.8,13.8,25.3,24.2c8.6,10.4,12.8,22.5,12.8,36.2
			c0,16-5.6,29.3-16.8,39.8c-11.2,10.5-25.4,15.8-42.6,15.8C855.5,1592.6,843.8,1589.8,832.2,1584.3z"/>
		<path class="st3" d="M956.7,1402.5h85.1v39.4h-43v34.1h37.3v38.4h-37.3v33.7h43.3v39.6h-85.4V1402.5z"/>
	</g>
</g>
</svg>
